<svg id="Слой_1" data-name="Слой 1" xmlns="http://www.w3.org/2000/svg" viewBox="0 0 513.88 339.45"><defs><style>.cls-1,.cls-2{fill:#95c11f;}.cls-2{font-size:17.19px;font-family:MyriadPro-Regular, Myriad Pro;}.cls-3{letter-spacing:0em;}.cls-4{letter-spacing:0em;}.cls-5{letter-spacing:-0.01em;}.cls-6{letter-spacing:0em;}.cls-7{letter-spacing:0em;}.cls-8{letter-spacing:-0.01em;}.cls-9{letter-spacing:0em;}.cls-10{fill:#575756;}.cls-11{fill:#3c3c3b;}</style></defs><title>лого</title><path class="cls-1" d="M254,171.59a19.84,19.84,0,0,1-19.82-19.82,19.58,19.58,0,0,1,.13-2.3,19.82,19.82,0,1,1,0-38.92,20.32,20.32,0,0,1-.12-2.21,19.82,19.82,0,0,1,39.64,0,18,18,0,0,1-.13,2.2,20.63,20.63,0,0,1,3.76-.35,19.82,19.82,0,1,1-3.77,39.28A19.77,19.77,0,0,1,254,171.59Zm-18.49-23.41-.11.73a18.18,18.18,0,0,0-.22,2.86,18.82,18.82,0,0,0,37.64,0,19.67,19.67,0,0,0-.22-2.86l-.12-.73.72.17a18.82,18.82,0,1,0,4.25-37.16,18.73,18.73,0,0,0-4.23.48l-.72.16.11-.73a18.22,18.22,0,0,0,.21-2.76,18.82,18.82,0,0,0-37.64,0,19.63,19.63,0,0,0,.2,2.77l.11.72-.72-.16a18.82,18.82,0,1,0-4.23,37.16,18.42,18.42,0,0,0,4.25-.49Z"/><text class="cls-2" transform="translate(192.43 231.89)">м<tspan class="cls-3" x="10.99" y="0">е</tspan><tspan class="cls-4" x="19.65" y="0">д</tspan><tspan class="cls-5" x="28.76" y="0">и</tspan><tspan x="38.1" y="0">чний </tspan><tspan class="cls-6" x="79.04" y="0">ц</tspan><tspan x="88.42" y="0">е</tspan><tspan class="cls-7" x="97.04" y="0">н</tspan><tspan class="cls-8" x="106.38" y="0">т</tspan><tspan class="cls-9" x="113.32" y="0">р</tspan></text><path class="cls-10" d="M277.43,115.1a14.93,14.93,0,0,0-11.9,5.94,15.08,15.08,0,0,0-1.5-1.7,14.91,14.91,0,1,0-20.45-.33,15,15,0,0,0-1.5,1.59,14.92,14.92,0,1,0,0,18.81,14.17,14.17,0,0,0,1.55,1.64,14.91,14.91,0,1,0,20.35-.32,15.25,15.25,0,0,0,1.55-1.76,14.9,14.9,0,1,0,11.9-23.87Zm-37.18-6.76a13.73,13.73,0,1,1,22.9,10.21,14.85,14.85,0,0,0-18.66-.3A13.69,13.69,0,0,1,240.25,108.34Zm-9.73,35.4a13.73,13.73,0,1,1,10.83-22.16,14.87,14.87,0,0,0,0,16.86A13.73,13.73,0,0,1,230.52,143.74Zm37.19,8a13.73,13.73,0,1,1-23.17-10,14.86,14.86,0,0,0,18.56-.29A13.71,13.71,0,0,1,267.71,151.77ZM263.07,140a14.86,14.86,0,0,0-18.56.29,13.33,13.33,0,0,1-1.7-1.82,14.87,14.87,0,0,0,0-16.86,14.62,14.62,0,0,1,1.65-1.78,14.85,14.85,0,0,0,18.66.3,14,14,0,0,1,1.71,2,14.86,14.86,0,0,0,0,15.88A14.08,14.08,0,0,1,263.07,140Zm14.36,3.77A13.72,13.72,0,0,1,266.24,138a14.86,14.86,0,0,0,0-15.88,13.73,13.73,0,1,1,11.19,21.67Z"/><path class="cls-11" d="M156.72,209.38h-2.21V189.06H143v20.32h-2.21V187h15.9Z"/><path class="cls-11" d="M180.1,201.92H165.48a5.45,5.45,0,0,0,1.82,4.14,6.28,6.28,0,0,0,4.4,1.69,6,6,0,0,0,3.4-1,6.38,6.38,0,0,0,2.31-2.74h2.3a8.91,8.91,0,0,1-3.11,4.23,8.12,8.12,0,0,1-4.9,1.54,8.22,8.22,0,0,1-6.09-2.46,8.44,8.44,0,0,1-2.43-6.18,8.67,8.67,0,0,1,2.15-5.85,8,8,0,0,1,6.37-2.81,7.52,7.52,0,0,1,6.51,3.11A10.47,10.47,0,0,1,180.1,201.92Zm-2.39-2a6.59,6.59,0,0,0-2.13-3.94,5.69,5.69,0,0,0-3.88-1.47,6,6,0,0,0-4.08,1.5,6.44,6.44,0,0,0-2.14,3.91Z"/><path class="cls-11" d="M203.47,201.19a8.22,8.22,0,0,1-2.48,6.13,8.56,8.56,0,0,1-6.27,2.45,6.71,6.71,0,0,1-6.22-3.47l-.06,8.87h-2.21V192.86h2.09v2.84a7.45,7.45,0,0,1,3.44-2.69,8.31,8.31,0,0,1,3-.54,8.19,8.19,0,0,1,6.48,2.78A8.65,8.65,0,0,1,203.47,201.19Zm-2.21,0a6.52,6.52,0,0,0-1.87-4.75,6.52,6.52,0,0,0-9.25,0,6.75,6.75,0,0,0-1.82,4.8,6.43,6.43,0,0,0,1.81,4.64,6.06,6.06,0,0,0,4.59,1.89,6.47,6.47,0,0,0,6.54-6.59Z"/><path class="cls-11" d="M225.69,197.87H223.2a6,6,0,0,0-2.27-2.49,6.11,6.11,0,0,0-3.23-.89,6.22,6.22,0,0,0-4.67,1.89,6.87,6.87,0,0,0,.07,9.43,6.25,6.25,0,0,0,4.6,1.94,6.33,6.33,0,0,0,3.17-.83,6.1,6.1,0,0,0,2.33-2.37h2.46a9.59,9.59,0,0,1-2.69,3.53,9,9,0,0,1-11.72-1,8.78,8.78,0,0,1-.06-11.74,8.28,8.28,0,0,1,6.51-2.84,8.33,8.33,0,0,1,8,5.4Z"/><path class="cls-11" d="M245.51,209.38h-2.22v-14.5h-9.14v14.5h-2.22V192.86h13.58Z"/><path class="cls-11" d="M268.55,201.92H253.94a5.42,5.42,0,0,0,1.82,4.14,6.25,6.25,0,0,0,4.39,1.69,6,6,0,0,0,3.41-1,6.29,6.29,0,0,0,2.3-2.74h2.31a8.91,8.91,0,0,1-3.11,4.23,8.68,8.68,0,0,1-11-.92,8.44,8.44,0,0,1-2.44-6.18,8.68,8.68,0,0,1,2.16-5.85,8,8,0,0,1,6.36-2.81,7.54,7.54,0,0,1,6.52,3.11A10.47,10.47,0,0,1,268.55,201.92Zm-2.39-2A6.58,6.58,0,0,0,264,196a5.72,5.72,0,0,0-3.89-1.47,6,6,0,0,0-4.08,1.5,6.43,6.43,0,0,0-2.13,3.91Z"/><path class="cls-11" d="M276.89,209.38h-2.21V192.86h2.21Zm10.71,0h-2.84L278.18,201l6.4-8.15h2.6l-6.28,8Z"/><path class="cls-11" d="M304.39,195.23h-4.22v14.49H298V195.23h-4.21v-2h10.64Z"/><path class="cls-11" d="M326.4,209.38h-2.22V196l-9.74,13.35h-2.21V192.86h2.21v13.35l9.74-13.35h2.22Z"/><path class="cls-11" d="M344.45,204.61a4.53,4.53,0,0,1-1.31,3.35,5.41,5.41,0,0,1-3.95,1.42h-6V192.86H339a4.82,4.82,0,0,1,3.86,1.45,4.37,4.37,0,0,1,1,3,3.69,3.69,0,0,1-.58,2,3.55,3.55,0,0,1-1.6,1.36,3.52,3.52,0,0,1,2,1.4A4.25,4.25,0,0,1,344.45,204.61Zm-2.81-7.34a2.22,2.22,0,0,0-.7-1.8,3.18,3.18,0,0,0-2.08-.59h-3.5v5h3.5a2.84,2.84,0,0,0,2.05-.71A2.56,2.56,0,0,0,341.64,197.27Zm.6,7.37a2.45,2.45,0,0,0-.87-2,3.79,3.79,0,0,0-2.42-.69h-3.59v5.43H339a3.39,3.39,0,0,0,2.6-.9A2.54,2.54,0,0,0,342.24,204.64Z"/><path class="cls-11" d="M367.14,209.38h-2.09V206.3A7.88,7.88,0,0,1,362,209a7.49,7.49,0,0,1-3.35.73,8.58,8.58,0,0,1-6.23-2.46,8.9,8.9,0,0,1-.37-12,8.21,8.21,0,0,1,6.54-2.81,8,8,0,0,1,3.84.83,7.06,7.06,0,0,1,2.59,2.43l.06-2.87h2.09Zm-2.09-8.16a6.72,6.72,0,0,0-1.85-4.77,6.15,6.15,0,0,0-4.64-2,6.23,6.23,0,0,0-4.59,1.92,6.54,6.54,0,0,0-1.89,4.78,6.28,6.28,0,0,0,1.92,4.67,6.38,6.38,0,0,0,4.62,1.89,6.17,6.17,0,0,0,4.55-1.91A6.31,6.31,0,0,0,365.05,201.22Z"/><rect class="cls-11" x="292.19" y="193.19" width="13.58" height="2.02"/></svg>