<svg id="Слой_1" data-name="Слой 1" xmlns="http://www.w3.org/2000/svg" viewBox="0 0 513.88 339.45"><title>лого</title><path d="M263.46,164.08a19.84,19.84,0,0,1-19.82-19.82,22,22,0,0,1,.13-2.3,20.56,20.56,0,0,1-3.76.36,19.82,19.82,0,0,1,0-39.64,19.61,19.61,0,0,1,3.75.36,20.32,20.32,0,0,1-.12-2.21,19.82,19.82,0,0,1,39.64,0,20.27,20.27,0,0,1-.12,2.2,20.47,20.47,0,0,1,3.76-.35A19.82,19.82,0,1,1,283.14,142a19.59,19.59,0,0,1,.14,2.3A19.84,19.84,0,0,1,263.46,164.08ZM245,140.67l-.11.73a19.36,19.36,0,0,0-.22,2.86,18.82,18.82,0,0,0,37.64,0,18.37,18.37,0,0,0-.22-2.86l-.11-.73.72.17a19.43,19.43,0,0,0,4.25.48,18.82,18.82,0,1,0,0-37.64,19.33,19.33,0,0,0-4.24.47l-.71.17.1-.73a18.22,18.22,0,0,0,.21-2.76,18.82,18.82,0,0,0-37.64,0,19.63,19.63,0,0,0,.2,2.77l.11.72-.71-.16a18.82,18.82,0,1,0,0,36.67Z"/><path d="M203.25,216.06h1.86l1.51,4.19c.21.62.57,1.64.76,2.29h0c.19-.62.66-1.94,1-2.86l1.34-3.62h1.88l.58,8.32h-1.44l-.19-4c-.05-.9-.12-2-.16-3h-.05c-.22.76-.44,1.43-.91,2.7l-1.6,4.2h-1.1l-1.48-4.11c-.26-.79-.62-2-.82-2.77h-.07c0,1-.09,2.08-.14,3l-.21,3.94h-1.39Z"/><path d="M215,220.49a2.67,2.67,0,0,0,2.86,2.89,5.45,5.45,0,0,0,2.3-.43l.26,1.09a6.75,6.75,0,0,1-2.77.51,3.86,3.86,0,0,1-4.09-4.2c0-2.51,1.48-4.48,3.9-4.48,2.72,0,3.44,2.39,3.44,3.92a5.09,5.09,0,0,1,0,.7Zm4.44-1.08a2.16,2.16,0,0,0-2.1-2.46,2.51,2.51,0,0,0-2.32,2.46Z"/><path d="M229.27,216.06v7.18l.86,0L230,227h-1.19l-.07-2.65H223L223,227h-1.18l-.07-3.77.7,0a6.23,6.23,0,0,0,.83-1.7,10.88,10.88,0,0,0,.48-3.32v-2.16Zm-4.22,2.52a10.9,10.9,0,0,1-.43,3.1,7.79,7.79,0,0,1-.67,1.55h3.84v-6h-2.74Z"/><path d="M233.32,216.06v3.5c0,1.33,0,2.15-.08,3.34l0,0c.5-1,.79-1.6,1.34-2.57l2.6-4.29H239v8.32h-1.45v-3.53c0-1.35,0-2.06.11-3.4h-.06c-.53,1.06-.89,1.74-1.37,2.58-.79,1.29-1.7,2.89-2.6,4.35H231.9v-8.32Z"/><path d="M242.64,216.06v2.73c0,1.05.4,1.77,1.72,1.77a3.16,3.16,0,0,0,1.79-.58v-3.92h1.5v8.32h-1.5V221h0a4.33,4.33,0,0,1-2.25.64,2.47,2.47,0,0,1-2.73-2.72v-2.9Z"/><path d="M251.58,216.06v3.35h4v-3.35H257v8.32h-1.49v-3.77h-4v3.77h-1.49v-8.32Z"/><path d="M260.9,216.06v3.5c0,1.33,0,2.15-.09,3.34l.06,0c.49-1,.79-1.6,1.34-2.57l2.59-4.29h1.77v8.32h-1.44v-3.53c0-1.35,0-2.06.1-3.4h-.05c-.53,1.06-.89,1.74-1.37,2.58-.79,1.29-1.71,2.89-2.6,4.35h-1.74v-8.32Z"/><path d="M270.43,216.06v3.5c0,1.33,0,2.15-.09,3.34l.05,0c.5-1,.79-1.6,1.34-2.57l2.6-4.29h1.77v8.32h-1.44v-3.53c0-1.35,0-2.06.1-3.4h-.05c-.54,1.06-.9,1.74-1.38,2.58-.79,1.29-1.7,2.89-2.6,4.35H269v-8.32Zm1-3.39c0,.74.41,1.3,1.1,1.3s1.08-.55,1.17-1.3h1.08a2.08,2.08,0,0,1-2.29,2.13,2,2,0,0,1-2.16-2.13Z"/><path d="M283.66,216.06v7.13h3.84v-7.13H289v7.18l.86,0-.08,3.77H288.6l-.07-2.65h-6.36v-8.32Z"/><path d="M292.43,220.49a2.67,2.67,0,0,0,2.86,2.89,5.48,5.48,0,0,0,2.3-.43l.26,1.09a6.79,6.79,0,0,1-2.77.51,3.86,3.86,0,0,1-4.09-4.2c0-2.51,1.48-4.48,3.9-4.48,2.72,0,3.44,2.39,3.44,3.92a5.09,5.09,0,0,1-.05.7Zm4.44-1.08a2.16,2.16,0,0,0-2.1-2.46,2.51,2.51,0,0,0-2.32,2.46Z"/><path d="M301.67,216.06v3.35h3.95v-3.35h1.5v8.32h-1.5v-3.77h-3.95v3.77h-1.5v-8.32Z"/><path d="M315.16,216.06v1.2h-2.59v7.12h-1.5v-7.12h-2.6v-1.2Z"/><path d="M316.49,218.77c0-1.06,0-1.92-.07-2.71h1.36l.07,1.42h0a3.28,3.28,0,0,1,3-1.61c2,0,3.52,1.7,3.52,4.23,0,3-1.82,4.47-3.78,4.47a2.91,2.91,0,0,1-2.56-1.31h0v4.52h-1.49ZM318,221a3.91,3.91,0,0,0,.07.62,2.34,2.34,0,0,0,2.27,1.77c1.6,0,2.53-1.31,2.53-3.21,0-1.67-.88-3.1-2.48-3.1a2.41,2.41,0,0,0-2.28,1.87,2.18,2.18,0,0,0-.11.62Z"/><path d="M286.92,107.59a14.9,14.9,0,0,0-11.9,5.94,15.17,15.17,0,0,0-1.51-1.7,14.91,14.91,0,1,0-20.45-.33,16.11,16.11,0,0,0-1.5,1.59,14.91,14.91,0,1,0,0,18.81,14.25,14.25,0,0,0,1.56,1.64,14.9,14.9,0,1,0,20.34-.33,14.44,14.44,0,0,0,1.56-1.75,14.9,14.9,0,1,0,11.9-23.87Zm-37.19-6.76A13.73,13.73,0,1,1,272.64,111a14.86,14.86,0,0,0-18.67-.3A13.69,13.69,0,0,1,249.73,100.83ZM240,136.23a13.73,13.73,0,1,1,10.82-22.16,14.87,14.87,0,0,0,0,16.86A13.71,13.71,0,0,1,240,136.23Zm37.18,8a13.73,13.73,0,1,1-23.17-10,14.9,14.9,0,0,0,18.56-.29A13.66,13.66,0,0,1,277.19,144.26Zm-4.64-11.8a14.85,14.85,0,0,0-18.55.29,12.8,12.8,0,0,1-1.71-1.82,14.87,14.87,0,0,0,0-16.86,13.92,13.92,0,0,1,1.65-1.78,14.86,14.86,0,0,0,18.67.3,14.58,14.58,0,0,1,1.7,2,14.84,14.84,0,0,0,0,15.87A14.16,14.16,0,0,1,272.55,132.46Zm14.37,3.77a13.72,13.72,0,0,1-11.2-5.8,14.84,14.84,0,0,0,0-15.87,13.73,13.73,0,1,1,11.2,21.67Z"/><path d="M166.2,201.87H164V181.55H152.51v20.32H150.3V179.52h15.9Z"/><path d="M189.58,194.41H175a5.42,5.42,0,0,0,1.82,4.13,6.23,6.23,0,0,0,4.4,1.69,6,6,0,0,0,3.41-1,6.34,6.34,0,0,0,2.3-2.73h2.3a8.84,8.84,0,0,1-3.11,4.23,8.67,8.67,0,0,1-11-.92,8.4,8.4,0,0,1-2.44-6.18,8.76,8.76,0,0,1,2.15-5.86,8,8,0,0,1,6.37-2.8,7.53,7.53,0,0,1,6.52,3.11A10.53,10.53,0,0,1,189.58,194.41Zm-2.39-2a6.66,6.66,0,0,0-2.12-3.94,5.77,5.77,0,0,0-3.89-1.46,6,6,0,0,0-4.08,1.49,6.47,6.47,0,0,0-2.14,3.91Z"/><path d="M213,193.68a8.26,8.26,0,0,1-2.48,6.13,8.6,8.6,0,0,1-6.28,2.45,6.71,6.71,0,0,1-6.22-3.47l-.06,8.87h-2.21V185.35h2.09v2.84a7.43,7.43,0,0,1,3.44-2.69,8.31,8.31,0,0,1,3-.54,8.21,8.21,0,0,1,6.48,2.77A8.7,8.7,0,0,1,213,193.68Zm-2.22,0a6.56,6.56,0,0,0-1.86-4.75,6.2,6.2,0,0,0-4.62-1.92,6.1,6.1,0,0,0-4.64,1.93,6.75,6.75,0,0,0-1.82,4.8,6.45,6.45,0,0,0,1.81,4.64,6.05,6.05,0,0,0,4.59,1.88,6.44,6.44,0,0,0,6.54-6.58Z"/><path d="M235.17,190.36h-2.48a6,6,0,0,0-2.28-2.49,6.1,6.1,0,0,0-3.22-.89,6.23,6.23,0,0,0-4.68,1.89,6.87,6.87,0,0,0,.07,9.43,6.47,6.47,0,0,0,7.78,1.1,6.1,6.1,0,0,0,2.33-2.37h2.45a9.62,9.62,0,0,1-2.69,3.54,8.69,8.69,0,0,1-14-7,8.5,8.5,0,0,1,2.21-5.8,8.61,8.61,0,0,1,14.5,2.57Z"/><path d="M255,201.87h-2.21v-14.5h-9.15v14.5h-2.21V185.35H255Z"/><path d="M278,194.41H263.42a5.42,5.42,0,0,0,1.82,4.13,6.23,6.23,0,0,0,4.4,1.69,6,6,0,0,0,3.4-1,6.29,6.29,0,0,0,2.31-2.73h2.3a8.91,8.91,0,0,1-3.11,4.23,8.68,8.68,0,0,1-11-.92,8.44,8.44,0,0,1-2.43-6.18,8.72,8.72,0,0,1,2.15-5.86,8,8,0,0,1,6.37-2.8,7.5,7.5,0,0,1,6.51,3.11A10.47,10.47,0,0,1,278,194.41Zm-2.4-2a6.55,6.55,0,0,0-2.12-3.94,5.73,5.73,0,0,0-3.88-1.46,6,6,0,0,0-4.08,1.49,6.47,6.47,0,0,0-2.14,3.91Z"/><path d="M286.38,201.87h-2.22V185.35h2.22Zm10.7,0h-2.84l-6.58-8.37,6.4-8.15h2.6l-6.28,8Z"/><path d="M313.87,187.71h-4.21v14.5h-2.22v-14.5h-4.21v-2h10.64Z"/><path d="M335.88,201.87h-2.21V188.52l-9.75,13.35h-2.21V185.35h2.21v13.34l9.75-13.34h2.21Z"/><path d="M353.93,197.09a4.51,4.51,0,0,1-1.31,3.36,5.4,5.4,0,0,1-3.95,1.42h-6V185.35h5.86a4.82,4.82,0,0,1,3.86,1.45,4.36,4.36,0,0,1,1,3,3.7,3.7,0,0,1-.59,2.05,3.55,3.55,0,0,1-1.6,1.36,3.52,3.52,0,0,1,2,1.4A4.24,4.24,0,0,1,353.93,197.09Zm-2.81-7.33a2.2,2.2,0,0,0-.7-1.8,3.18,3.18,0,0,0-2.08-.59h-3.49v5h3.49a2.8,2.8,0,0,0,2.05-.71A2.52,2.52,0,0,0,351.12,189.76Zm.6,7.37a2.48,2.48,0,0,0-.86-2,3.82,3.82,0,0,0-2.43-.69h-3.58v5.43h3.58a3.37,3.37,0,0,0,2.6-.9A2.54,2.54,0,0,0,351.72,197.13Z"/><path d="M376.62,201.87h-2.09v-3.08a7.89,7.89,0,0,1-3.08,2.74,7.45,7.45,0,0,1-3.34.73,8.6,8.6,0,0,1-6.24-2.46,8.94,8.94,0,0,1-.37-12,8.24,8.24,0,0,1,6.55-2.8,8,8,0,0,1,3.84.83,7.11,7.11,0,0,1,2.58,2.43l.06-2.87h2.09Zm-2.09-8.16a6.72,6.72,0,0,0-1.85-4.77,6.11,6.11,0,0,0-4.63-2,6.2,6.2,0,0,0-4.59,1.92,6.51,6.51,0,0,0-1.9,4.78,6.25,6.25,0,0,0,1.93,4.67,6.34,6.34,0,0,0,4.62,1.88,6.16,6.16,0,0,0,4.54-1.9A6.35,6.35,0,0,0,374.53,193.71Z"/><rect x="301.68" y="185.68" width="13.58" height="2.02"/></svg>