<svg width="24" height="24" viewBox="0 0 24 24" fill="none" xmlns="http://www.w3.org/2000/svg">
<path d="M10.8765 15.5407L8.65315 17.7608C8.18444 18.2288 7.43931 18.2288 6.95858 17.7728C6.82638 17.6408 6.69418 17.5208 6.56197 17.3888C5.32409 16.1407 4.20639 14.8327 3.20888 13.4646C2.22338 12.0965 1.43017 10.7285 0.853297 9.37242C0.288438 8.00436 0 6.6963 0 5.44825C0 4.63221 0.144219 3.85217 0.432658 3.13214C0.721096 2.40011 1.17779 1.72808 1.81476 1.12805C2.58393 0.372017 3.42521 0 4.31456 0C4.65107 0 4.98758 0.0720033 5.28804 0.21601C5.60051 0.360016 5.87693 0.576026 6.09326 0.88804L8.8815 4.81222C9.09783 5.11223 9.25407 5.38824 9.36223 5.65225C9.4704 5.90427 9.53049 6.15628 9.53049 6.38429C9.53049 6.6723 9.44636 6.96031 9.2781 7.23633C9.12187 7.51234 8.89352 7.80035 8.60508 8.08836L7.69169 9.03641C7.55949 9.16841 7.4994 9.32442 7.4994 9.51643C7.4994 9.61243 7.51142 9.69644 7.53545 9.79244C7.57151 9.88844 7.60756 9.96045 7.6316 10.0325C7.84793 10.4285 8.2205 10.9445 8.7493 11.5685C9.29012 12.1925 9.867 12.8286 10.4919 13.4646C10.6121 13.5846 10.7443 13.7046 10.8645 13.8246C11.3452 14.2926 11.3573 15.0607 10.8765 15.5407Z" fill="black"/>
<path d="M24 19.5958C24 19.9318 23.9399 20.2798 23.8197 20.6158C23.7837 20.7119 23.7476 20.8079 23.6996 20.9039C23.4952 21.3359 23.2308 21.7439 22.8823 22.1279C22.2934 22.7759 21.6444 23.244 20.9113 23.544C20.8993 23.544 20.8873 23.556 20.8753 23.556C20.1662 23.844 19.397 24 18.5678 24C17.3419 24 16.0319 23.712 14.6498 23.124C13.2677 22.5359 11.8856 21.7439 10.5155 20.7479C10.0468 20.3998 9.5781 20.0518 9.13342 19.6798L13.0634 15.7556C13.3999 16.0076 13.7004 16.1997 13.9527 16.3317C14.0128 16.3557 14.0849 16.3917 14.1691 16.4277C14.2652 16.4637 14.3614 16.4757 14.4695 16.4757C14.6738 16.4757 14.8301 16.4037 14.9623 16.2717L15.8757 15.3716C16.1761 15.0716 16.4646 14.8436 16.741 14.6996C17.0174 14.5316 17.2938 14.4476 17.5943 14.4476C17.8226 14.4476 18.063 14.4956 18.3274 14.6036C18.5918 14.7116 18.8682 14.8676 19.1687 15.0716L23.1467 17.8917C23.4592 18.1077 23.6755 18.3597 23.8077 18.6598C23.9279 18.9598 24 19.2598 24 19.5958Z" fill="black"/>
</svg>
